<?xml version="1.0" encoding="UTF-8"?><svg width="200px" height="230px" viewBox="0 0 200 230" version="1.1" xmlns="http://www.w3.org/2000/svg" xmlns:xlink="http://www.w3.org/1999/xlink"><title>RESTful API</title><desc>RESTful API for Craft CMS (by Flipbox)</desc><defs><linearGradient x1="0%" y1="0%" x2="50%" y2="100%" id="linearGradient-1"><stop stop-color="#FF00EA" offset="0%"></stop><stop stop-color="#D60878" offset="100%"></stop></linearGradient></defs><g id="Page-1" stroke="none" stroke-width="1" fill="none" fill-rule="evenodd"><g id="RESTful" fill-rule="nonzero"><g id="Icon"><polygon id="Polygon" fill="url(#linearGradient-1)" points="100 0 200 57.5 200 172.5 100 230 0 172.5 0 57.5"></polygon><g id="Group" transform="translate(47.468750, 73.785156)" fill="#FFFFFF"><path d="M102.18461,0.326816449 L4.57543029,0.326816449 L4.57543029,66.8884333 L102.220923,66.8884333 L102.220923,0.326816449 L102.18461,0.326816449 Z M37.1844493,47.5699498 L34.0615366,50.6928626 L16.9581424,33.5894684 L34.0615366,16.4860742 L37.1844493,19.608987 L23.2402808,33.5894684 L37.1844493,47.5699498 Z M46.5531876,56.6118716 L42.4135125,54.9777894 L60.1705396,10.6033781 L64.3102146,12.2374604 L46.5531876,56.6118716 Z M72.6985035,50.6928626 L69.5755908,47.5699498 L83.5560722,33.5894684 L69.5755908,19.608987 L72.6985035,16.4860742 L89.8018977,33.5894684 L72.6985035,50.6928626 Z" id="Shape"></path><path d="M0.108938816,71.3186118 L0.108938816,76.4387362 L5.55587964,84.6454604 L101.167848,84.6454604 L106.614788,76.4387362 L106.614788,71.3186118 L0.108938816,71.3186118 Z M46.7347522,80.2152818 L42.3045737,80.2152818 L42.3045737,75.7851033 L46.7347522,75.7851033 L46.7347522,80.2152818 Z M55.5951093,80.2152818 L51.1649308,80.2152818 L51.1649308,75.7851033 L55.5951093,75.7851033 L55.5951093,80.2152818 Z M64.4917793,80.2152818 L60.0616008,80.2152818 L60.0616008,75.7851033 L64.4917793,75.7851033 L64.4917793,80.2152818 Z" id="Shape"></path></g></g></g></g></svg>